<svg id="Layer_1" data-name="Layer 1" xmlns="http://www.w3.org/2000/svg" viewBox="0 0 400 400"><defs><style>.cls-1{fill:#99ff19;}.cls-2{fill:#231f20;}</style></defs><rect class="cls-1" width="400" height="400" rx="61.92"/><polygon class="cls-2" points="181.1 223.39 153.5 223.39 153.5 98.03 51.66 98.03 51.66 70.43 181.1 70.43 181.1 223.39"/><path class="cls-2" d="M159.61,151.47c-45.3-30.38-87.4-1.46-89.17-.21l-16-22.46c2.39-1.71,59.12-41.46,120.58-.25Z"/><polygon class="cls-2" points="250.52 281.35 167.3 281.35 167.3 253.75 222.92 253.75 222.92 70.43 352.35 70.43 352.35 98.03 250.52 98.03 250.52 281.35"/><path class="cls-2" d="M244.4,151.47,229,128.55c61.45-41.21,118.19-1.46,120.58.25l-16.09,22.42L341.57,140l-8,11.25C331.8,150,289.69,121.09,244.4,151.47Z"/><ellipse class="cls-2" cx="308.18" cy="171.28" rx="19.04" ry="35.95"/><ellipse class="cls-2" cx="128.52" cy="171.28" rx="19.04" ry="35.95"/><path class="cls-2" d="M65.46,194.68c-3.69,75,60.75,142.5,136.55,143.44,78.71,3.78,149.48-63.94,150.34-143.44,3.83,82.44-67.12,156.44-150.34,157.24C115.86,355.83,38.59,281.6,37.86,194.68Z"/></svg>